<mxfile host="www.draw.io" modified="2019-11-25T00:59:44.316Z" agent="Mozilla/5.0 (Macintosh; Intel Mac OS X 10_14_6) AppleWebKit/537.36 (KHTML, like Gecko) Chrome/78.0.3904.97 Safari/537.36" etag="Kgo87FX6CY0mpqM3xqJA" version="12.2.6" type="github" pages="4">
  <diagram id="omPGyh3w_E_wIxTKjRWQ" name="第 2 页">
    <mxGraphModel dx="1186" dy="741" grid="1" gridSize="10" guides="1" tooltips="1" connect="1" arrows="1" fold="1" page="1" pageScale="1" pageWidth="827" pageHeight="1169" math="0" shadow="0">
      <root>
        <mxCell id="RR_SWvFoInC3WwK9G4D--0"/>
        <mxCell id="RR_SWvFoInC3WwK9G4D--1" parent="RR_SWvFoInC3WwK9G4D--0"/>
        <mxCell id="iu7AiPtvD_3vxo7Ie8wY-0" value="CMDB整体架构图" style="rounded=1;whiteSpace=wrap;html=1;fillColor=#e1d5e7;strokeColor=#9673a6;" parent="RR_SWvFoInC3WwK9G4D--1" vertex="1">
          <mxGeometry x="60" y="240" width="630" height="80" as="geometry"/>
        </mxCell>
        <mxCell id="iu7AiPtvD_3vxo7Ie8wY-8" style="rounded=0;orthogonalLoop=1;jettySize=auto;html=1;exitX=1;exitY=0.25;exitDx=0;exitDy=0;entryX=0;entryY=0.25;entryDx=0;entryDy=0;" parent="RR_SWvFoInC3WwK9G4D--1" source="iu7AiPtvD_3vxo7Ie8wY-3" target="iu7AiPtvD_3vxo7Ie8wY-7" edge="1">
          <mxGeometry relative="1" as="geometry"/>
        </mxCell>
        <mxCell id="iu7AiPtvD_3vxo7Ie8wY-3" value="CPU" style="rounded=1;whiteSpace=wrap;html=1;fillColor=#dae8fc;strokeColor=#6c8ebf;" parent="RR_SWvFoInC3WwK9G4D--1" vertex="1">
          <mxGeometry x="60" y="340" width="90" height="50" as="geometry"/>
        </mxCell>
        <mxCell id="iu7AiPtvD_3vxo7Ie8wY-9" style="edgeStyle=none;rounded=0;orthogonalLoop=1;jettySize=auto;html=1;exitX=1;exitY=0.5;exitDx=0;exitDy=0;entryX=0;entryY=0.5;entryDx=0;entryDy=0;" parent="RR_SWvFoInC3WwK9G4D--1" source="iu7AiPtvD_3vxo7Ie8wY-4" target="iu7AiPtvD_3vxo7Ie8wY-7" edge="1">
          <mxGeometry relative="1" as="geometry"/>
        </mxCell>
        <mxCell id="iu7AiPtvD_3vxo7Ie8wY-4" value="RAM(内存)" style="rounded=1;whiteSpace=wrap;html=1;fillColor=#dae8fc;strokeColor=#6c8ebf;" parent="RR_SWvFoInC3WwK9G4D--1" vertex="1">
          <mxGeometry x="60" y="410" width="90" height="50" as="geometry"/>
        </mxCell>
        <mxCell id="iu7AiPtvD_3vxo7Ie8wY-10" style="edgeStyle=none;rounded=0;orthogonalLoop=1;jettySize=auto;html=1;exitX=1;exitY=0.5;exitDx=0;exitDy=0;entryX=0;entryY=0.75;entryDx=0;entryDy=0;" parent="RR_SWvFoInC3WwK9G4D--1" source="iu7AiPtvD_3vxo7Ie8wY-5" target="iu7AiPtvD_3vxo7Ie8wY-7" edge="1">
          <mxGeometry relative="1" as="geometry"/>
        </mxCell>
        <mxCell id="iu7AiPtvD_3vxo7Ie8wY-5" value="DISK" style="rounded=1;whiteSpace=wrap;html=1;fillColor=#dae8fc;strokeColor=#6c8ebf;" parent="RR_SWvFoInC3WwK9G4D--1" vertex="1">
          <mxGeometry x="60" y="480" width="90" height="50" as="geometry"/>
        </mxCell>
        <mxCell id="iu7AiPtvD_3vxo7Ie8wY-11" style="edgeStyle=none;rounded=0;orthogonalLoop=1;jettySize=auto;html=1;exitX=1;exitY=0.5;exitDx=0;exitDy=0;" parent="RR_SWvFoInC3WwK9G4D--1" source="iu7AiPtvD_3vxo7Ie8wY-6" target="iu7AiPtvD_3vxo7Ie8wY-7" edge="1">
          <mxGeometry relative="1" as="geometry"/>
        </mxCell>
        <mxCell id="iu7AiPtvD_3vxo7Ie8wY-6" value="NIC(网卡)" style="rounded=1;whiteSpace=wrap;html=1;fillColor=#dae8fc;strokeColor=#6c8ebf;" parent="RR_SWvFoInC3WwK9G4D--1" vertex="1">
          <mxGeometry x="60" y="550" width="90" height="50" as="geometry"/>
        </mxCell>
        <mxCell id="iu7AiPtvD_3vxo7Ie8wY-7" value="Asset&amp;nbsp; 共享数据表&lt;br&gt;" style="rounded=1;whiteSpace=wrap;html=1;fillColor=#f8cecc;strokeColor=#b85450;" parent="RR_SWvFoInC3WwK9G4D--1" vertex="1">
          <mxGeometry x="300" y="430" width="190" height="60" as="geometry"/>
        </mxCell>
        <mxCell id="iu7AiPtvD_3vxo7Ie8wY-17" style="edgeStyle=none;rounded=0;orthogonalLoop=1;jettySize=auto;html=1;exitX=0;exitY=0.5;exitDx=0;exitDy=0;" parent="RR_SWvFoInC3WwK9G4D--1" source="iu7AiPtvD_3vxo7Ie8wY-12" edge="1">
          <mxGeometry relative="1" as="geometry">
            <mxPoint x="490" y="429" as="targetPoint"/>
          </mxGeometry>
        </mxCell>
        <mxCell id="iu7AiPtvD_3vxo7Ie8wY-12" value="机房" style="rounded=1;whiteSpace=wrap;html=1;fillColor=#f5f5f5;strokeColor=#666666;fontColor=#333333;" parent="RR_SWvFoInC3WwK9G4D--1" vertex="1">
          <mxGeometry x="588" y="339" width="110" height="40" as="geometry"/>
        </mxCell>
        <mxCell id="iu7AiPtvD_3vxo7Ie8wY-18" style="edgeStyle=none;rounded=0;orthogonalLoop=1;jettySize=auto;html=1;exitX=0;exitY=0.75;exitDx=0;exitDy=0;" parent="RR_SWvFoInC3WwK9G4D--1" source="iu7AiPtvD_3vxo7Ie8wY-13" edge="1">
          <mxGeometry relative="1" as="geometry">
            <mxPoint x="508" y="444" as="targetPoint"/>
          </mxGeometry>
        </mxCell>
        <mxCell id="iu7AiPtvD_3vxo7Ie8wY-13" value="业务线" style="rounded=1;whiteSpace=wrap;html=1;fillColor=#f5f5f5;strokeColor=#666666;fontColor=#333333;" parent="RR_SWvFoInC3WwK9G4D--1" vertex="1">
          <mxGeometry x="588" y="394" width="110" height="40" as="geometry"/>
        </mxCell>
        <mxCell id="iu7AiPtvD_3vxo7Ie8wY-19" style="edgeStyle=none;rounded=0;orthogonalLoop=1;jettySize=auto;html=1;exitX=0;exitY=0.5;exitDx=0;exitDy=0;" parent="RR_SWvFoInC3WwK9G4D--1" source="iu7AiPtvD_3vxo7Ie8wY-14" edge="1">
          <mxGeometry relative="1" as="geometry">
            <mxPoint x="508" y="463.2857142857142" as="targetPoint"/>
          </mxGeometry>
        </mxCell>
        <mxCell id="iu7AiPtvD_3vxo7Ie8wY-14" value="厂商（资产）" style="rounded=1;whiteSpace=wrap;html=1;fillColor=#f5f5f5;strokeColor=#666666;fontColor=#333333;" parent="RR_SWvFoInC3WwK9G4D--1" vertex="1">
          <mxGeometry x="588" y="449" width="110" height="40" as="geometry"/>
        </mxCell>
        <mxCell id="iu7AiPtvD_3vxo7Ie8wY-20" style="edgeStyle=none;rounded=0;orthogonalLoop=1;jettySize=auto;html=1;exitX=0;exitY=0.5;exitDx=0;exitDy=0;" parent="RR_SWvFoInC3WwK9G4D--1" source="iu7AiPtvD_3vxo7Ie8wY-15" edge="1">
          <mxGeometry relative="1" as="geometry">
            <mxPoint x="508" y="489" as="targetPoint"/>
          </mxGeometry>
        </mxCell>
        <mxCell id="iu7AiPtvD_3vxo7Ie8wY-15" value="标签" style="rounded=1;whiteSpace=wrap;html=1;fillColor=#f5f5f5;strokeColor=#666666;fontColor=#333333;" parent="RR_SWvFoInC3WwK9G4D--1" vertex="1">
          <mxGeometry x="588" y="513.5" width="110" height="31" as="geometry"/>
        </mxCell>
        <mxCell id="iu7AiPtvD_3vxo7Ie8wY-21" style="edgeStyle=none;rounded=0;orthogonalLoop=1;jettySize=auto;html=1;exitX=0;exitY=0.5;exitDx=0;exitDy=0;entryX=0.867;entryY=1.017;entryDx=0;entryDy=0;entryPerimeter=0;" parent="RR_SWvFoInC3WwK9G4D--1" source="iu7AiPtvD_3vxo7Ie8wY-16" edge="1">
          <mxGeometry relative="1" as="geometry">
            <mxPoint x="492.03999999999996" y="490.02" as="targetPoint"/>
          </mxGeometry>
        </mxCell>
        <mxCell id="iu7AiPtvD_3vxo7Ie8wY-16" value="合同" style="rounded=1;whiteSpace=wrap;html=1;fillColor=#f5f5f5;strokeColor=#666666;fontColor=#333333;" parent="RR_SWvFoInC3WwK9G4D--1" vertex="1">
          <mxGeometry x="588" y="569" width="110" height="31" as="geometry"/>
        </mxCell>
        <mxCell id="iu7AiPtvD_3vxo7Ie8wY-27" style="edgeStyle=none;rounded=0;orthogonalLoop=1;jettySize=auto;html=1;exitX=0.5;exitY=0;exitDx=0;exitDy=0;entryX=0.25;entryY=1;entryDx=0;entryDy=0;" parent="RR_SWvFoInC3WwK9G4D--1" source="iu7AiPtvD_3vxo7Ie8wY-22" target="iu7AiPtvD_3vxo7Ie8wY-7" edge="1">
          <mxGeometry relative="1" as="geometry"/>
        </mxCell>
        <mxCell id="iu7AiPtvD_3vxo7Ie8wY-22" value="服务器" style="rounded=1;whiteSpace=wrap;html=1;fillColor=#fff2cc;strokeColor=#d6b656;" parent="RR_SWvFoInC3WwK9G4D--1" vertex="1">
          <mxGeometry x="180" y="620" width="80" height="30" as="geometry"/>
        </mxCell>
        <mxCell id="iu7AiPtvD_3vxo7Ie8wY-28" style="edgeStyle=none;rounded=0;orthogonalLoop=1;jettySize=auto;html=1;exitX=0.5;exitY=0;exitDx=0;exitDy=0;" parent="RR_SWvFoInC3WwK9G4D--1" source="iu7AiPtvD_3vxo7Ie8wY-23" target="iu7AiPtvD_3vxo7Ie8wY-7" edge="1">
          <mxGeometry relative="1" as="geometry"/>
        </mxCell>
        <mxCell id="iu7AiPtvD_3vxo7Ie8wY-23" value="存储设备" style="rounded=1;whiteSpace=wrap;html=1;fillColor=#fff2cc;strokeColor=#d6b656;arcSize=0;" parent="RR_SWvFoInC3WwK9G4D--1" vertex="1">
          <mxGeometry x="280" y="620" width="80" height="30" as="geometry"/>
        </mxCell>
        <mxCell id="iu7AiPtvD_3vxo7Ie8wY-29" style="edgeStyle=none;rounded=0;orthogonalLoop=1;jettySize=auto;html=1;exitX=0.5;exitY=0;exitDx=0;exitDy=0;" parent="RR_SWvFoInC3WwK9G4D--1" source="iu7AiPtvD_3vxo7Ie8wY-24" target="iu7AiPtvD_3vxo7Ie8wY-7" edge="1">
          <mxGeometry relative="1" as="geometry"/>
        </mxCell>
        <mxCell id="iu7AiPtvD_3vxo7Ie8wY-24" value="安全设备" style="rounded=1;whiteSpace=wrap;html=1;fillColor=#fff2cc;strokeColor=#d6b656;arcSize=0;" parent="RR_SWvFoInC3WwK9G4D--1" vertex="1">
          <mxGeometry x="385" y="620" width="80" height="30" as="geometry"/>
        </mxCell>
        <mxCell id="iu7AiPtvD_3vxo7Ie8wY-25" value="软件资产" style="rounded=1;whiteSpace=wrap;html=1;fillColor=#d5e8d4;strokeColor=#82b366;arcSize=0;" parent="RR_SWvFoInC3WwK9G4D--1" vertex="1">
          <mxGeometry x="180" y="680" width="80" height="30" as="geometry"/>
        </mxCell>
        <mxCell id="iu7AiPtvD_3vxo7Ie8wY-30" style="edgeStyle=none;rounded=0;orthogonalLoop=1;jettySize=auto;html=1;exitX=0.5;exitY=0;exitDx=0;exitDy=0;entryX=0.75;entryY=1;entryDx=0;entryDy=0;" parent="RR_SWvFoInC3WwK9G4D--1" source="iu7AiPtvD_3vxo7Ie8wY-26" target="iu7AiPtvD_3vxo7Ie8wY-7" edge="1">
          <mxGeometry relative="1" as="geometry"/>
        </mxCell>
        <mxCell id="iu7AiPtvD_3vxo7Ie8wY-26" value="网络设备" style="rounded=1;whiteSpace=wrap;html=1;fillColor=#fff2cc;strokeColor=#d6b656;arcSize=0;" parent="RR_SWvFoInC3WwK9G4D--1" vertex="1">
          <mxGeometry x="480" y="620" width="80" height="30" as="geometry"/>
        </mxCell>
        <mxCell id="iu7AiPtvD_3vxo7Ie8wY-31" value="日志表" style="rounded=1;whiteSpace=wrap;html=1;fillColor=#60a917;strokeColor=#2D7600;arcSize=0;fontColor=#ffffff;" parent="RR_SWvFoInC3WwK9G4D--1" vertex="1">
          <mxGeometry x="295" y="725" width="80" height="30" as="geometry"/>
        </mxCell>
        <mxCell id="iu7AiPtvD_3vxo7Ie8wY-32" value="资产审批表" style="rounded=1;whiteSpace=wrap;html=1;fillColor=#008a00;strokeColor=#005700;arcSize=0;fontColor=#ffffff;" parent="RR_SWvFoInC3WwK9G4D--1" vertex="1">
          <mxGeometry x="395" y="725" width="80" height="30" as="geometry"/>
        </mxCell>
      </root>
    </mxGraphModel>
  </diagram>
  <diagram id="gfRZk6L2c06MgbypK4e2" name="第 3 页">
    <mxGraphModel dx="1186" dy="741" grid="1" gridSize="10" guides="1" tooltips="1" connect="1" arrows="1" fold="1" page="1" pageScale="1" pageWidth="827" pageHeight="1169" math="0" shadow="0">
      <root>
        <mxCell id="MV9IAKSoMNd4bLnEL5Sz-0"/>
        <mxCell id="MV9IAKSoMNd4bLnEL5Sz-1" parent="MV9IAKSoMNd4bLnEL5Sz-0"/>
        <mxCell id="MV9IAKSoMNd4bLnEL5Sz-2" value="CMDB" style="rounded=1;whiteSpace=wrap;html=1;" vertex="1" parent="MV9IAKSoMNd4bLnEL5Sz-1">
          <mxGeometry x="80" y="216" width="110" height="40" as="geometry"/>
        </mxCell>
        <mxCell id="MV9IAKSoMNd4bLnEL5Sz-3" value="基础" style="text;html=1;resizable=0;points=[];autosize=1;align=left;verticalAlign=top;spacingTop=-4;gradientColor=#ffa500;fillColor=#ffcd28;strokeColor=#d79b00;" vertex="1" parent="MV9IAKSoMNd4bLnEL5Sz-1">
          <mxGeometry x="262" y="140" width="40" height="20" as="geometry"/>
        </mxCell>
        <mxCell id="MV9IAKSoMNd4bLnEL5Sz-4" value="硬件资产" style="text;html=1;resizable=0;points=[];autosize=1;align=left;verticalAlign=top;spacingTop=-4;fillColor=#f8cecc;strokeColor=#b85450;" vertex="1" parent="MV9IAKSoMNd4bLnEL5Sz-1">
          <mxGeometry x="252" y="250" width="60" height="20" as="geometry"/>
        </mxCell>
        <mxCell id="MV9IAKSoMNd4bLnEL5Sz-5" value="软件资产" style="text;html=1;resizable=0;points=[];autosize=1;align=left;verticalAlign=top;spacingTop=-4;gradientColor=#7ea6e0;fillColor=#dae8fc;strokeColor=#6c8ebf;" vertex="1" parent="MV9IAKSoMNd4bLnEL5Sz-1">
          <mxGeometry x="252" y="520" width="60" height="20" as="geometry"/>
        </mxCell>
        <mxCell id="MV9IAKSoMNd4bLnEL5Sz-6" value="IDC" style="text;html=1;resizable=0;points=[];autosize=1;align=left;verticalAlign=top;spacingTop=-4;gradientColor=#ffa500;fillColor=#ffcd28;strokeColor=#d79b00;" vertex="1" parent="MV9IAKSoMNd4bLnEL5Sz-1">
          <mxGeometry x="360" y="187" width="40" height="20" as="geometry"/>
        </mxCell>
        <mxCell id="MV9IAKSoMNd4bLnEL5Sz-8" value="实体机" style="text;html=1;resizable=0;points=[];autosize=1;align=left;verticalAlign=top;spacingTop=-4;gradientColor=#ffa500;fillColor=#ffcd28;strokeColor=#d79b00;" vertex="1" parent="MV9IAKSoMNd4bLnEL5Sz-1">
          <mxGeometry x="409" y="145" width="50" height="20" as="geometry"/>
        </mxCell>
        <mxCell id="MV9IAKSoMNd4bLnEL5Sz-9" value="虚拟机" style="text;html=1;resizable=0;points=[];autosize=1;align=left;verticalAlign=top;spacingTop=-4;gradientColor=#ffa500;fillColor=#ffcd28;strokeColor=#d79b00;" vertex="1" parent="MV9IAKSoMNd4bLnEL5Sz-1">
          <mxGeometry x="409" y="170" width="50" height="20" as="geometry"/>
        </mxCell>
        <mxCell id="MV9IAKSoMNd4bLnEL5Sz-14" value="堡垒机" style="text;html=1;resizable=0;points=[];autosize=1;align=left;verticalAlign=top;spacingTop=-4;gradientColor=#7ea6e0;fillColor=#dae8fc;strokeColor=#6c8ebf;" vertex="1" parent="MV9IAKSoMNd4bLnEL5Sz-1">
          <mxGeometry x="429" y="450" width="50" height="20" as="geometry"/>
        </mxCell>
        <mxCell id="MV9IAKSoMNd4bLnEL5Sz-15" value="防火墙" style="text;html=1;resizable=0;points=[];autosize=1;align=left;verticalAlign=top;spacingTop=-4;gradientColor=#7ea6e0;fillColor=#dae8fc;strokeColor=#6c8ebf;" vertex="1" parent="MV9IAKSoMNd4bLnEL5Sz-1">
          <mxGeometry x="429" y="430" width="50" height="20" as="geometry"/>
        </mxCell>
        <mxCell id="MV9IAKSoMNd4bLnEL5Sz-16" value="云资产" style="text;html=1;resizable=0;points=[];autosize=1;align=left;verticalAlign=top;spacingTop=-4;gradientColor=#7ea6e0;fillColor=#dae8fc;strokeColor=#6c8ebf;" vertex="1" parent="MV9IAKSoMNd4bLnEL5Sz-1">
          <mxGeometry x="355" y="320" width="50" height="20" as="geometry"/>
        </mxCell>
        <mxCell id="MV9IAKSoMNd4bLnEL5Sz-17" value="阿里云" style="text;html=1;resizable=0;points=[];autosize=1;align=left;verticalAlign=top;spacingTop=-4;gradientColor=#7ea6e0;fillColor=#dae8fc;strokeColor=#6c8ebf;" vertex="1" parent="MV9IAKSoMNd4bLnEL5Sz-1">
          <mxGeometry x="411" y="290" width="50" height="20" as="geometry"/>
        </mxCell>
        <mxCell id="MV9IAKSoMNd4bLnEL5Sz-18" value="ECS" style="text;html=1;resizable=0;points=[];autosize=1;align=left;verticalAlign=top;spacingTop=-4;gradientColor=#7ea6e0;fillColor=#dae8fc;strokeColor=#6c8ebf;" vertex="1" parent="MV9IAKSoMNd4bLnEL5Sz-1">
          <mxGeometry x="480" y="290" width="40" height="20" as="geometry"/>
        </mxCell>
        <mxCell id="MV9IAKSoMNd4bLnEL5Sz-19" value="腾讯云" style="text;html=1;resizable=0;points=[];autosize=1;align=left;verticalAlign=top;spacingTop=-4;gradientColor=#7ea6e0;fillColor=#dae8fc;strokeColor=#6c8ebf;" vertex="1" parent="MV9IAKSoMNd4bLnEL5Sz-1">
          <mxGeometry x="411" y="320" width="50" height="20" as="geometry"/>
        </mxCell>
        <mxCell id="MV9IAKSoMNd4bLnEL5Sz-21" value="CVM" style="text;html=1;resizable=0;points=[];autosize=1;align=left;verticalAlign=top;spacingTop=-4;gradientColor=#7ea6e0;fillColor=#dae8fc;strokeColor=#6c8ebf;" vertex="1" parent="MV9IAKSoMNd4bLnEL5Sz-1">
          <mxGeometry x="480" y="320" width="40" height="20" as="geometry"/>
        </mxCell>
        <mxCell id="MV9IAKSoMNd4bLnEL5Sz-22" value="存储设备" style="text;html=1;resizable=0;points=[];autosize=1;align=left;verticalAlign=top;spacingTop=-4;gradientColor=#7ea6e0;fillColor=#dae8fc;strokeColor=#6c8ebf;" vertex="1" parent="MV9IAKSoMNd4bLnEL5Sz-1">
          <mxGeometry x="351" y="390" width="60" height="20" as="geometry"/>
        </mxCell>
        <mxCell id="MV9IAKSoMNd4bLnEL5Sz-23" value="安全设备" style="text;html=1;resizable=0;points=[];autosize=1;align=left;verticalAlign=top;spacingTop=-4;gradientColor=#7ea6e0;fillColor=#dae8fc;strokeColor=#6c8ebf;" vertex="1" parent="MV9IAKSoMNd4bLnEL5Sz-1">
          <mxGeometry x="351" y="440" width="60" height="20" as="geometry"/>
        </mxCell>
        <mxCell id="MV9IAKSoMNd4bLnEL5Sz-24" value="服务器" style="text;html=1;resizable=0;points=[];autosize=1;align=left;verticalAlign=top;spacingTop=-4;gradientColor=#7ea6e0;fillColor=#dae8fc;strokeColor=#6c8ebf;" vertex="1" parent="MV9IAKSoMNd4bLnEL5Sz-1">
          <mxGeometry x="355" y="490" width="50" height="20" as="geometry"/>
        </mxCell>
        <mxCell id="MV9IAKSoMNd4bLnEL5Sz-25" value="磁盘阵列" style="text;html=1;resizable=0;points=[];autosize=1;align=left;verticalAlign=top;spacingTop=-4;gradientColor=#7ea6e0;fillColor=#dae8fc;strokeColor=#6c8ebf;" vertex="1" parent="MV9IAKSoMNd4bLnEL5Sz-1">
          <mxGeometry x="429" y="370" width="60" height="20" as="geometry"/>
        </mxCell>
        <mxCell id="MV9IAKSoMNd4bLnEL5Sz-26" value="网络存储" style="text;html=1;resizable=0;points=[];autosize=1;align=left;verticalAlign=top;spacingTop=-4;gradientColor=#7ea6e0;fillColor=#dae8fc;strokeColor=#6c8ebf;" vertex="1" parent="MV9IAKSoMNd4bLnEL5Sz-1">
          <mxGeometry x="429" y="390" width="60" height="20" as="geometry"/>
        </mxCell>
      </root>
    </mxGraphModel>
  </diagram>
  <diagram id="Ea3OZFT8r1OFQ5HnB2NR" name="第 4 页">
    <mxGraphModel dx="1186" dy="741" grid="1" gridSize="10" guides="1" tooltips="1" connect="1" arrows="1" fold="1" page="1" pageScale="1" pageWidth="827" pageHeight="1169" math="0" shadow="0">
      <root>
        <mxCell id="qIOLdfDVBc6aBTf5itff-0"/>
        <mxCell id="qIOLdfDVBc6aBTf5itff-1" parent="qIOLdfDVBc6aBTf5itff-0"/>
        <mxCell id="qIOLdfDVBc6aBTf5itff-2" value="name" style="rounded=1;whiteSpace=wrap;html=1;" vertex="1" parent="qIOLdfDVBc6aBTf5itff-1">
          <mxGeometry x="50" y="30" width="110" height="40" as="geometry"/>
        </mxCell>
        <mxCell id="qIOLdfDVBc6aBTf5itff-14" style="edgeStyle=none;rounded=0;orthogonalLoop=1;jettySize=auto;html=1;exitX=0.25;exitY=1;exitDx=0;exitDy=0;entryX=0.75;entryY=0;entryDx=0;entryDy=0;" edge="1" parent="qIOLdfDVBc6aBTf5itff-1" source="qIOLdfDVBc6aBTf5itff-3" target="qIOLdfDVBc6aBTf5itff-10">
          <mxGeometry relative="1" as="geometry"/>
        </mxCell>
        <mxCell id="qIOLdfDVBc6aBTf5itff-3" value="" style="rounded=1;whiteSpace=wrap;html=1;" vertex="1" parent="qIOLdfDVBc6aBTf5itff-1">
          <mxGeometry x="330" y="20" width="110" height="40" as="geometry"/>
        </mxCell>
        <mxCell id="qIOLdfDVBc6aBTf5itff-5" value="每日鲜果" style="rounded=1;whiteSpace=wrap;html=1;" vertex="1" parent="qIOLdfDVBc6aBTf5itff-1">
          <mxGeometry x="60" y="110" width="110" height="40" as="geometry"/>
        </mxCell>
        <mxCell id="qIOLdfDVBc6aBTf5itff-6" value="MR-负载业务" style="rounded=1;whiteSpace=wrap;html=1;" vertex="1" parent="qIOLdfDVBc6aBTf5itff-1">
          <mxGeometry x="70" y="360" width="110" height="40" as="geometry"/>
        </mxCell>
        <mxCell id="qIOLdfDVBc6aBTf5itff-7" value="MR-订单" style="rounded=1;whiteSpace=wrap;html=1;" vertex="1" parent="qIOLdfDVBc6aBTf5itff-1">
          <mxGeometry x="60" y="220" width="110" height="40" as="geometry"/>
        </mxCell>
        <mxCell id="qIOLdfDVBc6aBTf5itff-10" value="MR-java" style="rounded=1;whiteSpace=wrap;html=1;" vertex="1" parent="qIOLdfDVBc6aBTf5itff-1">
          <mxGeometry x="210" y="170" width="110" height="40" as="geometry"/>
        </mxCell>
        <mxCell id="qIOLdfDVBc6aBTf5itff-13" value="MR-python" style="rounded=1;whiteSpace=wrap;html=1;" vertex="1" parent="qIOLdfDVBc6aBTf5itff-1">
          <mxGeometry x="210" y="230" width="110" height="40" as="geometry"/>
        </mxCell>
      </root>
    </mxGraphModel>
  </diagram>
  <diagram id="YuSqGykiGp2aeBE1eobM" name="第 5 页">
    <mxGraphModel dx="1186" dy="741" grid="1" gridSize="10" guides="1" tooltips="1" connect="1" arrows="1" fold="1" page="1" pageScale="1" pageWidth="827" pageHeight="1169" math="0" shadow="0">
      <root>
        <mxCell id="qSVpvSIAxNqgLd43f2Oe-0"/>
        <mxCell id="qSVpvSIAxNqgLd43f2Oe-1" parent="qSVpvSIAxNqgLd43f2Oe-0"/>
      </root>
    </mxGraphModel>
  </diagram>
</mxfile>
